<mxfile host="app.diagrams.net" agent="Mozilla/5.0 (Windows NT 10.0; Win64; x64) AppleWebKit/537.36 (KHTML, like Gecko) Chrome/140.0.0.0 Safari/537.36" version="28.2.7">
  <diagram name="Page-1" id="ZI-g3mT2Tx3-ogcv4lei">
    <mxGraphModel dx="2680" dy="879" grid="1" gridSize="10" guides="1" tooltips="1" connect="1" arrows="1" fold="1" page="1" pageScale="1" pageWidth="1100" pageHeight="1700" math="0" shadow="0">
      <root>
        <mxCell id="0" />
        <mxCell id="1" parent="0" />
        <mxCell id="6w4TJL9mJ3goXlQ9s9LW-83" value="" style="shape=cylinder3;whiteSpace=wrap;html=1;boundedLbl=1;backgroundOutline=1;size=15;" parent="1" vertex="1">
          <mxGeometry x="1020" y="305" width="210" height="245" as="geometry" />
        </mxCell>
        <mxCell id="6w4TJL9mJ3goXlQ9s9LW-2" value="&lt;font style=&quot;color: rgb(0, 0, 255);&quot;&gt;EKS blue&lt;/font&gt;" style="points=[[0,0],[0.25,0],[0.5,0],[0.75,0],[1,0],[1,0.25],[1,0.5],[1,0.75],[1,1],[0.75,1],[0.5,1],[0.25,1],[0,1],[0,0.75],[0,0.5],[0,0.25]];outlineConnect=0;gradientColor=none;html=1;whiteSpace=wrap;fontSize=12;fontStyle=0;container=1;pointerEvents=0;collapsible=0;recursiveResize=0;shape=mxgraph.aws4.group;grIcon=mxgraph.aws4.group_vpc2;strokeColor=#0000FF;fillColor=none;verticalAlign=top;align=left;spacingLeft=30;fontColor=#AAB7B8;dashed=0;" parent="1" vertex="1">
          <mxGeometry x="490" y="260" width="420" height="160" as="geometry" />
        </mxCell>
        <mxCell id="6w4TJL9mJ3goXlQ9s9LW-9" value="nginx-ingress" style="whiteSpace=wrap;html=1;align=center;" parent="6w4TJL9mJ3goXlQ9s9LW-2" vertex="1">
          <mxGeometry x="50" y="70" width="80" height="30" as="geometry" />
        </mxCell>
        <mxCell id="6w4TJL9mJ3goXlQ9s9LW-10" value="console" style="whiteSpace=wrap;html=1;align=center;" parent="6w4TJL9mJ3goXlQ9s9LW-2" vertex="1">
          <mxGeometry x="190" y="20" width="70" height="30" as="geometry" />
        </mxCell>
        <mxCell id="6w4TJL9mJ3goXlQ9s9LW-11" value="identity" style="whiteSpace=wrap;html=1;align=center;" parent="6w4TJL9mJ3goXlQ9s9LW-2" vertex="1">
          <mxGeometry x="190" y="70" width="70" height="30" as="geometry" />
        </mxCell>
        <mxCell id="6w4TJL9mJ3goXlQ9s9LW-12" value="integration" style="whiteSpace=wrap;html=1;align=center;" parent="6w4TJL9mJ3goXlQ9s9LW-2" vertex="1">
          <mxGeometry x="190" y="120" width="70" height="30" as="geometry" />
        </mxCell>
        <mxCell id="6w4TJL9mJ3goXlQ9s9LW-13" value="coredns" style="whiteSpace=wrap;html=1;align=center;" parent="6w4TJL9mJ3goXlQ9s9LW-2" vertex="1">
          <mxGeometry x="310" y="70" width="70" height="30" as="geometry" />
        </mxCell>
        <mxCell id="6w4TJL9mJ3goXlQ9s9LW-14" value="&lt;font style=&quot;color: rgb(0, 153, 0);&quot;&gt;EKS green&lt;/font&gt;" style="points=[[0,0],[0.25,0],[0.5,0],[0.75,0],[1,0],[1,0.25],[1,0.5],[1,0.75],[1,1],[0.75,1],[0.5,1],[0.25,1],[0,1],[0,0.75],[0,0.5],[0,0.25]];outlineConnect=0;gradientColor=none;html=1;whiteSpace=wrap;fontSize=12;fontStyle=0;container=1;pointerEvents=0;collapsible=0;recursiveResize=0;shape=mxgraph.aws4.group;grIcon=mxgraph.aws4.group_vpc2;strokeColor=#009900;fillColor=none;verticalAlign=top;align=left;spacingLeft=30;fontColor=#AAB7B8;dashed=0;" parent="1" vertex="1">
          <mxGeometry x="490" y="480" width="420" height="160" as="geometry" />
        </mxCell>
        <mxCell id="6w4TJL9mJ3goXlQ9s9LW-16" value="console" style="whiteSpace=wrap;html=1;align=center;" parent="6w4TJL9mJ3goXlQ9s9LW-14" vertex="1">
          <mxGeometry x="190" y="20" width="70" height="30" as="geometry" />
        </mxCell>
        <mxCell id="6w4TJL9mJ3goXlQ9s9LW-18" value="integration" style="whiteSpace=wrap;html=1;align=center;" parent="6w4TJL9mJ3goXlQ9s9LW-14" vertex="1">
          <mxGeometry x="190" y="120" width="70" height="30" as="geometry" />
        </mxCell>
        <mxCell id="6w4TJL9mJ3goXlQ9s9LW-19" value="coredns" style="whiteSpace=wrap;html=1;align=center;" parent="6w4TJL9mJ3goXlQ9s9LW-14" vertex="1">
          <mxGeometry x="310" y="70" width="70" height="30" as="geometry" />
        </mxCell>
        <mxCell id="6w4TJL9mJ3goXlQ9s9LW-26" value="APIC" style="whiteSpace=wrap;html=1;align=center;" parent="1" vertex="1">
          <mxGeometry x="-580" y="260" width="279" height="95" as="geometry" />
        </mxCell>
        <mxCell id="6w4TJL9mJ3goXlQ9s9LW-108" style="edgeStyle=orthogonalEdgeStyle;rounded=0;orthogonalLoop=1;jettySize=auto;html=1;entryX=0;entryY=0.5;entryDx=0;entryDy=0;dashed=1;" parent="1" source="6w4TJL9mJ3goXlQ9s9LW-27" target="6w4TJL9mJ3goXlQ9s9LW-9" edge="1">
          <mxGeometry relative="1" as="geometry">
            <mxPoint x="430" y="360" as="targetPoint" />
          </mxGeometry>
        </mxCell>
        <mxCell id="6w4TJL9mJ3goXlQ9s9LW-27" value="" style="sketch=0;outlineConnect=0;fontColor=#232F3E;gradientColor=none;fillColor=#0000FF;strokeColor=none;dashed=0;verticalLabelPosition=bottom;verticalAlign=top;align=center;html=1;fontSize=12;fontStyle=0;aspect=fixed;pointerEvents=1;shape=mxgraph.aws4.network_load_balancer;" parent="1" vertex="1">
          <mxGeometry x="360" y="320" width="50" height="50" as="geometry" />
        </mxCell>
        <mxCell id="6w4TJL9mJ3goXlQ9s9LW-35" value="" style="edgeStyle=elbowEdgeStyle;elbow=vertical;endArrow=classic;html=1;curved=0;rounded=0;endSize=8;startSize=8;dashed=1;" parent="1" source="6w4TJL9mJ3goXlQ9s9LW-13" target="6w4TJL9mJ3goXlQ9s9LW-27" edge="1">
          <mxGeometry width="50" height="50" relative="1" as="geometry">
            <mxPoint x="470" y="460" as="sourcePoint" />
            <mxPoint x="520" y="410" as="targetPoint" />
            <Array as="points">
              <mxPoint x="590" y="190" />
            </Array>
          </mxGeometry>
        </mxCell>
        <mxCell id="6w4TJL9mJ3goXlQ9s9LW-37" value="tqf.pvcombank.com.vn&lt;br&gt;&lt;div&gt;console.blue.tqf.pvcombank.com.vn&lt;/div&gt;" style="edgeLabel;html=1;align=center;verticalAlign=middle;resizable=0;points=[];" parent="6w4TJL9mJ3goXlQ9s9LW-35" vertex="1" connectable="0">
          <mxGeometry x="0.0804" y="1" relative="1" as="geometry">
            <mxPoint as="offset" />
          </mxGeometry>
        </mxCell>
        <mxCell id="6w4TJL9mJ3goXlQ9s9LW-36" value="" style="edgeStyle=elbowEdgeStyle;elbow=horizontal;endArrow=classic;html=1;curved=0;rounded=0;endSize=8;startSize=8;dashed=1;" parent="1" source="6w4TJL9mJ3goXlQ9s9LW-19" target="6w4TJL9mJ3goXlQ9s9LW-28" edge="1">
          <mxGeometry width="50" height="50" relative="1" as="geometry">
            <mxPoint x="470" y="460" as="sourcePoint" />
            <mxPoint x="520" y="410" as="targetPoint" />
            <Array as="points">
              <mxPoint x="600" y="710" />
            </Array>
          </mxGeometry>
        </mxCell>
        <mxCell id="6w4TJL9mJ3goXlQ9s9LW-38" value="tqf.pvcombank.com.vn&lt;br&gt;&lt;div&gt;console.green.tqf.pvcombank.com.vn&lt;/div&gt;" style="edgeLabel;html=1;align=center;verticalAlign=middle;resizable=0;points=[];" parent="6w4TJL9mJ3goXlQ9s9LW-36" vertex="1" connectable="0">
          <mxGeometry x="0.0917" y="1" relative="1" as="geometry">
            <mxPoint as="offset" />
          </mxGeometry>
        </mxCell>
        <mxCell id="6w4TJL9mJ3goXlQ9s9LW-73" value="NLB-blue" style="text;html=1;align=center;verticalAlign=middle;whiteSpace=wrap;rounded=0;" parent="1" vertex="1">
          <mxGeometry x="347.5" y="380" width="75" height="30" as="geometry" />
        </mxCell>
        <mxCell id="6w4TJL9mJ3goXlQ9s9LW-78" value="idconfig-db-blue" style="whiteSpace=wrap;html=1;align=center;" parent="1" vertex="1">
          <mxGeometry x="1040" y="360" width="70" height="30" as="geometry" />
        </mxCell>
        <mxCell id="6w4TJL9mJ3goXlQ9s9LW-79" value="admin-db-blue" style="whiteSpace=wrap;html=1;align=center;" parent="1" vertex="1">
          <mxGeometry x="1140" y="360" width="70" height="30" as="geometry" />
        </mxCell>
        <mxCell id="6w4TJL9mJ3goXlQ9s9LW-80" value="DBX" style="whiteSpace=wrap;html=1;align=center;" parent="1" vertex="1">
          <mxGeometry x="1090" y="420" width="70" height="30" as="geometry" />
        </mxCell>
        <mxCell id="6w4TJL9mJ3goXlQ9s9LW-81" value="idconfig-db-green" style="whiteSpace=wrap;html=1;align=center;" parent="1" vertex="1">
          <mxGeometry x="1040" y="488" width="70" height="30" as="geometry" />
        </mxCell>
        <mxCell id="6w4TJL9mJ3goXlQ9s9LW-82" value="admin-db-green" style="whiteSpace=wrap;html=1;align=center;" parent="1" vertex="1">
          <mxGeometry x="1140" y="488" width="70" height="30" as="geometry" />
        </mxCell>
        <mxCell id="6w4TJL9mJ3goXlQ9s9LW-85" value="AWS Account - infinity-prod" style="points=[[0,0],[0.25,0],[0.5,0],[0.75,0],[1,0],[1,0.25],[1,0.5],[1,0.75],[1,1],[0.75,1],[0.5,1],[0.25,1],[0,1],[0,0.75],[0,0.5],[0,0.25]];outlineConnect=0;gradientColor=none;html=1;whiteSpace=wrap;fontSize=12;fontStyle=0;container=1;pointerEvents=0;collapsible=0;recursiveResize=0;shape=mxgraph.aws4.group;grIcon=mxgraph.aws4.group_account;strokeColor=#000000;fillColor=none;verticalAlign=top;align=left;spacingLeft=30;fontColor=#CD2264;dashed=0;" parent="1" vertex="1">
          <mxGeometry x="-180" y="130" width="1430" height="690" as="geometry" />
        </mxCell>
        <mxCell id="6w4TJL9mJ3goXlQ9s9LW-69" value="Rules" style="swimlane;fontStyle=0;childLayout=stackLayout;horizontal=1;startSize=30;horizontalStack=0;resizeParent=1;resizeParentMax=0;resizeLast=0;collapsible=1;marginBottom=0;whiteSpace=wrap;html=1;" parent="6w4TJL9mJ3goXlQ9s9LW-85" vertex="1">
          <mxGeometry x="196" y="520" width="276" height="110" as="geometry">
            <mxRectangle x="200" y="520" width="70" height="30" as="alternateBounds" />
          </mxGeometry>
        </mxCell>
        <mxCell id="6w4TJL9mJ3goXlQ9s9LW-70" value="Source IP APIC&amp;nbsp; &amp;nbsp; -&amp;gt; NLB blue - weight 0%&lt;div&gt;&lt;span style=&quot;white-space: pre;&quot;&gt;&#x9;&lt;/span&gt;&lt;span style=&quot;white-space: pre;&quot;&gt;&#x9;&lt;/span&gt;&lt;span style=&quot;white-space: pre;&quot;&gt;&#x9;&lt;/span&gt;&amp;nbsp; &amp;nbsp; &amp;nbsp;-&amp;gt; NLB green - weight 100%&lt;br&gt;&lt;/div&gt;" style="text;strokeColor=none;fillColor=none;align=left;verticalAlign=middle;spacingLeft=4;spacingRight=4;overflow=hidden;points=[[0,0.5],[1,0.5]];portConstraint=eastwest;rotatable=0;whiteSpace=wrap;html=1;" parent="6w4TJL9mJ3goXlQ9s9LW-69" vertex="1">
          <mxGeometry y="30" width="276" height="40" as="geometry" />
        </mxCell>
        <mxCell id="6w4TJL9mJ3goXlQ9s9LW-71" value="Source IP runner&amp;nbsp; -&amp;gt; NLB blue - weight 100%&lt;div&gt;&lt;span style=&quot;white-space: pre;&quot;&gt;&#x9;&lt;/span&gt;&lt;span style=&quot;white-space: pre;&quot;&gt;&#x9;&lt;/span&gt;&lt;span style=&quot;white-space: pre;&quot;&gt;&#x9;&lt;/span&gt;&amp;nbsp; &amp;nbsp; &amp;nbsp;-&amp;gt; NLB green - weight 0%&lt;br&gt;&lt;/div&gt;" style="text;strokeColor=none;fillColor=none;align=left;verticalAlign=middle;spacingLeft=4;spacingRight=4;overflow=hidden;points=[[0,0.5],[1,0.5]];portConstraint=eastwest;rotatable=0;whiteSpace=wrap;html=1;" parent="6w4TJL9mJ3goXlQ9s9LW-69" vertex="1">
          <mxGeometry y="70" width="276" height="40" as="geometry" />
        </mxCell>
        <mxCell id="6w4TJL9mJ3goXlQ9s9LW-31" value="" style="sketch=0;outlineConnect=0;fontColor=#232F3E;gradientColor=none;fillColor=#8C4FFF;strokeColor=none;dashed=0;verticalLabelPosition=bottom;verticalAlign=top;align=center;html=1;fontSize=12;fontStyle=0;aspect=fixed;pointerEvents=1;shape=mxgraph.aws4.network_load_balancer;" parent="6w4TJL9mJ3goXlQ9s9LW-85" vertex="1">
          <mxGeometry x="62.5" y="329" width="50" height="50" as="geometry" />
        </mxCell>
        <mxCell id="6w4TJL9mJ3goXlQ9s9LW-76" value="NLB-live" style="text;html=1;align=center;verticalAlign=middle;whiteSpace=wrap;rounded=0;" parent="6w4TJL9mJ3goXlQ9s9LW-85" vertex="1">
          <mxGeometry x="50" y="290" width="75" height="30" as="geometry" />
        </mxCell>
        <mxCell id="6w4TJL9mJ3goXlQ9s9LW-29" value="" style="sketch=0;outlineConnect=0;fontColor=#232F3E;gradientColor=none;fillColor=#8C4FFF;strokeColor=none;dashed=0;verticalLabelPosition=bottom;verticalAlign=top;align=center;html=1;fontSize=12;fontStyle=0;aspect=fixed;pointerEvents=1;shape=mxgraph.aws4.application_load_balancer;" parent="6w4TJL9mJ3goXlQ9s9LW-85" vertex="1">
          <mxGeometry x="300" y="320" width="68" height="68" as="geometry" />
        </mxCell>
        <mxCell id="6w4TJL9mJ3goXlQ9s9LW-75" value="ALB" style="text;html=1;align=center;verticalAlign=middle;whiteSpace=wrap;rounded=0;" parent="6w4TJL9mJ3goXlQ9s9LW-85" vertex="1">
          <mxGeometry x="270" y="290" width="75" height="30" as="geometry" />
        </mxCell>
        <mxCell id="6w4TJL9mJ3goXlQ9s9LW-95" value="" style="edgeStyle=elbowEdgeStyle;elbow=horizontal;endArrow=classic;html=1;curved=0;rounded=0;endSize=8;startSize=8;" parent="6w4TJL9mJ3goXlQ9s9LW-85" source="6w4TJL9mJ3goXlQ9s9LW-31" target="6w4TJL9mJ3goXlQ9s9LW-29" edge="1">
          <mxGeometry width="50" height="50" relative="1" as="geometry">
            <mxPoint x="280" y="340" as="sourcePoint" />
            <mxPoint x="330" y="290" as="targetPoint" />
          </mxGeometry>
        </mxCell>
        <mxCell id="6w4TJL9mJ3goXlQ9s9LW-112" value="" style="endArrow=classic;html=1;rounded=0;exitX=1;exitY=0.5;exitDx=0;exitDy=0;entryX=0;entryY=0.5;entryDx=0;entryDy=0;dashed=1;" parent="6w4TJL9mJ3goXlQ9s9LW-85" edge="1">
          <mxGeometry width="50" height="50" relative="1" as="geometry">
            <mxPoint x="800" y="220" as="sourcePoint" />
            <mxPoint x="860" y="170" as="targetPoint" />
          </mxGeometry>
        </mxCell>
        <mxCell id="6w4TJL9mJ3goXlQ9s9LW-115" value="" style="endArrow=classic;html=1;rounded=0;exitX=1;exitY=0.5;exitDx=0;exitDy=0;entryX=0;entryY=0.5;entryDx=0;entryDy=0;dashed=1;" parent="6w4TJL9mJ3goXlQ9s9LW-85" target="6w4TJL9mJ3goXlQ9s9LW-16" edge="1">
          <mxGeometry width="50" height="50" relative="1" as="geometry">
            <mxPoint x="800" y="447.5" as="sourcePoint" />
            <mxPoint x="860" y="397.5" as="targetPoint" />
          </mxGeometry>
        </mxCell>
        <mxCell id="6w4TJL9mJ3goXlQ9s9LW-116" value="" style="endArrow=classic;html=1;rounded=0;dashed=1;" parent="6w4TJL9mJ3goXlQ9s9LW-85" edge="1">
          <mxGeometry width="50" height="50" relative="1" as="geometry">
            <mxPoint x="800" y="447.5" as="sourcePoint" />
            <mxPoint x="860" y="447.5" as="targetPoint" />
          </mxGeometry>
        </mxCell>
        <mxCell id="6w4TJL9mJ3goXlQ9s9LW-117" value="" style="endArrow=classic;html=1;rounded=0;entryX=0;entryY=0.5;entryDx=0;entryDy=0;dashed=1;" parent="6w4TJL9mJ3goXlQ9s9LW-85" edge="1">
          <mxGeometry width="50" height="50" relative="1" as="geometry">
            <mxPoint x="800" y="447.5" as="sourcePoint" />
            <mxPoint x="860" y="492.5" as="targetPoint" />
          </mxGeometry>
        </mxCell>
        <mxCell id="6w4TJL9mJ3goXlQ9s9LW-17" value="identity" style="whiteSpace=wrap;html=1;align=center;" parent="6w4TJL9mJ3goXlQ9s9LW-85" vertex="1">
          <mxGeometry x="860" y="430" width="70" height="30" as="geometry" />
        </mxCell>
        <mxCell id="6w4TJL9mJ3goXlQ9s9LW-84" value="nginx-ingress" style="whiteSpace=wrap;html=1;align=center;" parent="6w4TJL9mJ3goXlQ9s9LW-85" vertex="1">
          <mxGeometry x="720" y="430" width="80" height="30" as="geometry" />
        </mxCell>
        <mxCell id="6w4TJL9mJ3goXlQ9s9LW-28" value="" style="sketch=0;outlineConnect=0;fontColor=#232F3E;gradientColor=none;fillColor=#009900;strokeColor=none;dashed=0;verticalLabelPosition=bottom;verticalAlign=top;align=center;html=1;fontSize=12;fontStyle=0;aspect=fixed;pointerEvents=1;shape=mxgraph.aws4.network_load_balancer;" parent="6w4TJL9mJ3goXlQ9s9LW-85" vertex="1">
          <mxGeometry x="540" y="420" width="50" height="50" as="geometry" />
        </mxCell>
        <mxCell id="6w4TJL9mJ3goXlQ9s9LW-119" style="edgeStyle=orthogonalEdgeStyle;rounded=0;orthogonalLoop=1;jettySize=auto;html=1;entryX=0;entryY=0.5;entryDx=0;entryDy=0;dashed=1;" parent="6w4TJL9mJ3goXlQ9s9LW-85" source="6w4TJL9mJ3goXlQ9s9LW-28" target="6w4TJL9mJ3goXlQ9s9LW-84" edge="1">
          <mxGeometry relative="1" as="geometry">
            <mxPoint x="770" y="470" as="targetPoint" />
            <mxPoint x="640" y="470" as="sourcePoint" />
          </mxGeometry>
        </mxCell>
        <mxCell id="6w4TJL9mJ3goXlQ9s9LW-74" value="NLB-green" style="text;html=1;align=center;verticalAlign=middle;whiteSpace=wrap;rounded=0;" parent="6w4TJL9mJ3goXlQ9s9LW-85" vertex="1">
          <mxGeometry x="527.5" y="379" width="75" height="30" as="geometry" />
        </mxCell>
        <mxCell id="6w4TJL9mJ3goXlQ9s9LW-94" value="" style="edgeStyle=elbowEdgeStyle;elbow=horizontal;endArrow=classic;html=1;curved=0;rounded=0;endSize=8;startSize=8;exitX=1;exitY=0.5;exitDx=0;exitDy=0;" parent="1" source="6w4TJL9mJ3goXlQ9s9LW-26" target="6w4TJL9mJ3goXlQ9s9LW-31" edge="1">
          <mxGeometry width="50" height="50" relative="1" as="geometry">
            <mxPoint x="100" y="470" as="sourcePoint" />
            <mxPoint x="150" y="420" as="targetPoint" />
          </mxGeometry>
        </mxCell>
        <mxCell id="6w4TJL9mJ3goXlQ9s9LW-99" value="" style="endArrow=none;dashed=1;html=1;rounded=0;" parent="1" edge="1">
          <mxGeometry width="50" height="50" relative="1" as="geometry">
            <mxPoint x="150" y="650" as="sourcePoint" />
            <mxPoint x="150" y="520" as="targetPoint" />
          </mxGeometry>
        </mxCell>
        <mxCell id="6w4TJL9mJ3goXlQ9s9LW-100" value="attach" style="edgeLabel;html=1;align=center;verticalAlign=middle;resizable=0;points=[];" parent="6w4TJL9mJ3goXlQ9s9LW-99" vertex="1" connectable="0">
          <mxGeometry x="0.149" y="-1" relative="1" as="geometry">
            <mxPoint as="offset" />
          </mxGeometry>
        </mxCell>
        <mxCell id="6w4TJL9mJ3goXlQ9s9LW-105" value="" style="edgeStyle=elbowEdgeStyle;elbow=horizontal;endArrow=classic;html=1;curved=0;rounded=0;endSize=8;startSize=8;exitX=1;exitY=0.5;exitDx=0;exitDy=0;entryX=0;entryY=0.5;entryDx=0;entryDy=0;entryPerimeter=0;" parent="1" source="6w4TJL9mJ3goXlQ9s9LW-2" target="6w4TJL9mJ3goXlQ9s9LW-83" edge="1">
          <mxGeometry width="50" height="50" relative="1" as="geometry">
            <mxPoint x="530" y="510" as="sourcePoint" />
            <mxPoint x="580" y="460" as="targetPoint" />
          </mxGeometry>
        </mxCell>
        <mxCell id="6w4TJL9mJ3goXlQ9s9LW-106" value="" style="edgeStyle=elbowEdgeStyle;elbow=horizontal;endArrow=classic;html=1;curved=0;rounded=0;endSize=8;startSize=8;exitX=1;exitY=0.5;exitDx=0;exitDy=0;entryX=-0.007;entryY=0.643;entryDx=0;entryDy=0;entryPerimeter=0;" parent="1" source="6w4TJL9mJ3goXlQ9s9LW-14" target="6w4TJL9mJ3goXlQ9s9LW-83" edge="1">
          <mxGeometry width="50" height="50" relative="1" as="geometry">
            <mxPoint x="530" y="510" as="sourcePoint" />
            <mxPoint x="580" y="460" as="targetPoint" />
          </mxGeometry>
        </mxCell>
        <mxCell id="6w4TJL9mJ3goXlQ9s9LW-113" value="" style="endArrow=classic;html=1;rounded=0;dashed=1;" parent="1" edge="1">
          <mxGeometry width="50" height="50" relative="1" as="geometry">
            <mxPoint x="620" y="350" as="sourcePoint" />
            <mxPoint x="680" y="350" as="targetPoint" />
          </mxGeometry>
        </mxCell>
        <mxCell id="6w4TJL9mJ3goXlQ9s9LW-114" value="" style="endArrow=classic;html=1;rounded=0;entryX=0;entryY=0.5;entryDx=0;entryDy=0;dashed=1;" parent="1" target="6w4TJL9mJ3goXlQ9s9LW-12" edge="1">
          <mxGeometry width="50" height="50" relative="1" as="geometry">
            <mxPoint x="620" y="350" as="sourcePoint" />
            <mxPoint x="670" y="400" as="targetPoint" />
          </mxGeometry>
        </mxCell>
        <mxCell id="6w4TJL9mJ3goXlQ9s9LW-120" value="On prem" style="points=[[0,0],[0.25,0],[0.5,0],[0.75,0],[1,0],[1,0.25],[1,0.5],[1,0.75],[1,1],[0.75,1],[0.5,1],[0.25,1],[0,1],[0,0.75],[0,0.5],[0,0.25]];outlineConnect=0;gradientColor=none;html=1;whiteSpace=wrap;fontSize=12;fontStyle=0;container=1;pointerEvents=0;collapsible=0;recursiveResize=0;shape=mxgraph.aws4.group;grIcon=mxgraph.aws4.group_vpc2;strokeColor=#000000;fillColor=none;verticalAlign=top;align=left;spacingLeft=30;fontColor=#AAB7B8;dashed=1;" parent="1" vertex="1">
          <mxGeometry x="-650" y="450" width="430" height="370" as="geometry" />
        </mxCell>
        <mxCell id="6w4TJL9mJ3goXlQ9s9LW-92" value="" style="shape=image;html=1;verticalAlign=top;verticalLabelPosition=bottom;labelBackgroundColor=#ffffff;imageAspect=0;aspect=fixed;image=https://icons.diagrams.net/icon-cache1/Socialcones-2932/Gitlab-794.svg" parent="6w4TJL9mJ3goXlQ9s9LW-120" vertex="1">
          <mxGeometry x="186" y="90" width="58" height="58" as="geometry" />
        </mxCell>
        <mxCell id="6w4TJL9mJ3goXlQ9s9LW-93" value="Gitlab runner" style="text;html=1;align=center;verticalAlign=middle;whiteSpace=wrap;rounded=0;" parent="6w4TJL9mJ3goXlQ9s9LW-120" vertex="1">
          <mxGeometry x="175" y="150" width="80" height="30" as="geometry" />
        </mxCell>
        <mxCell id="6w4TJL9mJ3goXlQ9s9LW-86" value="Onprem DNS" style="swimlane;fontStyle=0;childLayout=stackLayout;horizontal=1;startSize=30;horizontalStack=0;resizeParent=1;resizeParentMax=0;resizeLast=0;collapsible=1;marginBottom=0;whiteSpace=wrap;html=1;" parent="6w4TJL9mJ3goXlQ9s9LW-120" vertex="1">
          <mxGeometry x="50" y="230" width="300" height="100" as="geometry" />
        </mxCell>
        <mxCell id="6w4TJL9mJ3goXlQ9s9LW-87" value="&lt;span style=&quot;font-size: 11px; text-align: center; text-wrap-mode: nowrap; background-color: rgb(255, 255, 255);&quot;&gt;tqf.pvcombank.com.vn&lt;/span&gt;&amp;nbsp;-&amp;gt; CNAME NLB live&lt;div&gt;&lt;span style=&quot;background-color: light-dark(rgb(255, 255, 255), rgb(18, 18, 18)); font-size: 11px; text-align: center; text-wrap-mode: nowrap; color: light-dark(rgb(0, 0, 0), rgb(255, 255, 255));&quot;&gt;console.blue.tqf.pvcombank.com.vn -&amp;gt; CNAME NLB blue&lt;/span&gt;&lt;/div&gt;&lt;div&gt;&lt;span style=&quot;font-size: 11px; text-align: center; text-wrap-mode: nowrap; background-color: rgb(255, 255, 255);&quot;&gt;console.green.tqf.pvcombank.com.vn -&amp;gt; CNAME NLB green&lt;/span&gt;&lt;span style=&quot;background-color: light-dark(rgb(255, 255, 255), rgb(18, 18, 18)); font-size: 11px; text-align: center; text-wrap-mode: nowrap; color: light-dark(rgb(0, 0, 0), rgb(255, 255, 255));&quot;&gt;&lt;/span&gt;&lt;/div&gt;" style="text;strokeColor=none;fillColor=none;align=left;verticalAlign=middle;spacingLeft=4;spacingRight=4;overflow=hidden;points=[[0,0.5],[1,0.5]];portConstraint=eastwest;rotatable=0;whiteSpace=wrap;html=1;" parent="6w4TJL9mJ3goXlQ9s9LW-86" vertex="1">
          <mxGeometry y="30" width="300" height="70" as="geometry" />
        </mxCell>
        <mxCell id="6w4TJL9mJ3goXlQ9s9LW-125" value="" style="edgeStyle=elbowEdgeStyle;elbow=horizontal;endArrow=classic;html=1;curved=0;rounded=0;endSize=8;startSize=8;strokeColor=#009900;" parent="1" source="6w4TJL9mJ3goXlQ9s9LW-29" edge="1">
          <mxGeometry width="50" height="50" relative="1" as="geometry">
            <mxPoint x="260" y="704" as="sourcePoint" />
            <mxPoint x="360" y="578" as="targetPoint" />
            <Array as="points">
              <mxPoint x="250" y="530" />
            </Array>
          </mxGeometry>
        </mxCell>
        <mxCell id="6w4TJL9mJ3goXlQ9s9LW-128" value="100%" style="edgeLabel;html=1;align=center;verticalAlign=middle;resizable=0;points=[];" parent="6w4TJL9mJ3goXlQ9s9LW-125" vertex="1" connectable="0">
          <mxGeometry x="-0.027" relative="1" as="geometry">
            <mxPoint as="offset" />
          </mxGeometry>
        </mxCell>
        <mxCell id="6w4TJL9mJ3goXlQ9s9LW-126" value="" style="edgeStyle=elbowEdgeStyle;elbow=horizontal;endArrow=classic;html=1;curved=0;rounded=0;endSize=8;startSize=8;exitX=1;exitY=0.5;exitDx=0;exitDy=0;" parent="1" source="6w4TJL9mJ3goXlQ9s9LW-92" target="6w4TJL9mJ3goXlQ9s9LW-31" edge="1">
          <mxGeometry width="50" height="50" relative="1" as="geometry">
            <mxPoint x="-250" y="590" as="sourcePoint" />
            <mxPoint x="-66" y="766" as="targetPoint" />
            <Array as="points">
              <mxPoint x="-92" y="580" />
            </Array>
          </mxGeometry>
        </mxCell>
        <mxCell id="6w4TJL9mJ3goXlQ9s9LW-124" value="" style="edgeStyle=elbowEdgeStyle;elbow=horizontal;endArrow=classic;html=1;curved=0;rounded=0;endSize=8;startSize=8;strokeColor=#0000FF;exitX=0.882;exitY=0.23;exitDx=0;exitDy=0;exitPerimeter=0;" parent="1" source="6w4TJL9mJ3goXlQ9s9LW-29" target="6w4TJL9mJ3goXlQ9s9LW-27" edge="1">
          <mxGeometry width="50" height="50" relative="1" as="geometry">
            <mxPoint x="191.5" y="465.64999999999986" as="sourcePoint" />
            <mxPoint x="365.25" y="340" as="targetPoint" />
            <Array as="points">
              <mxPoint x="253.5" y="411.65" />
            </Array>
          </mxGeometry>
        </mxCell>
        <mxCell id="6w4TJL9mJ3goXlQ9s9LW-127" value="0%" style="edgeLabel;html=1;align=center;verticalAlign=middle;resizable=0;points=[];" parent="6w4TJL9mJ3goXlQ9s9LW-124" vertex="1" connectable="0">
          <mxGeometry x="0.0863" relative="1" as="geometry">
            <mxPoint as="offset" />
          </mxGeometry>
        </mxCell>
        <mxCell id="6w4TJL9mJ3goXlQ9s9LW-129" value="" style="endArrow=classic;html=1;rounded=0;fontColor=#0000FF;strokeColor=#0000FF;" parent="1" edge="1">
          <mxGeometry relative="1" as="geometry">
            <mxPoint x="440" y="880" as="sourcePoint" />
            <mxPoint x="590" y="880" as="targetPoint" />
            <Array as="points">
              <mxPoint x="510" y="880" />
            </Array>
          </mxGeometry>
        </mxCell>
        <mxCell id="6w4TJL9mJ3goXlQ9s9LW-130" value="APIC blue traffic" style="edgeLabel;resizable=0;html=1;;align=center;verticalAlign=middle;fontColor=#0000FF;" parent="6w4TJL9mJ3goXlQ9s9LW-129" connectable="0" vertex="1">
          <mxGeometry relative="1" as="geometry" />
        </mxCell>
        <mxCell id="6w4TJL9mJ3goXlQ9s9LW-131" value="" style="endArrow=classic;html=1;rounded=0;strokeColor=#009900;" parent="1" edge="1">
          <mxGeometry relative="1" as="geometry">
            <mxPoint x="440" y="920" as="sourcePoint" />
            <mxPoint x="590" y="920" as="targetPoint" />
            <Array as="points">
              <mxPoint x="510" y="920" />
            </Array>
          </mxGeometry>
        </mxCell>
        <mxCell id="6w4TJL9mJ3goXlQ9s9LW-132" value="APIC green traffic" style="edgeLabel;resizable=0;html=1;;align=center;verticalAlign=middle;fontColor=#009900;" parent="6w4TJL9mJ3goXlQ9s9LW-131" connectable="0" vertex="1">
          <mxGeometry relative="1" as="geometry" />
        </mxCell>
        <mxCell id="6w4TJL9mJ3goXlQ9s9LW-133" value="" style="endArrow=classic;html=1;rounded=0;strokeColor=#FF0000;" parent="1" edge="1">
          <mxGeometry relative="1" as="geometry">
            <mxPoint x="440" y="960" as="sourcePoint" />
            <mxPoint x="590" y="960" as="targetPoint" />
            <Array as="points">
              <mxPoint x="510" y="960" />
            </Array>
          </mxGeometry>
        </mxCell>
        <mxCell id="6w4TJL9mJ3goXlQ9s9LW-134" value="runner traffic" style="edgeLabel;resizable=0;html=1;;align=center;verticalAlign=middle;fontColor=#FF0000;" parent="6w4TJL9mJ3goXlQ9s9LW-133" connectable="0" vertex="1">
          <mxGeometry relative="1" as="geometry" />
        </mxCell>
        <mxCell id="6w4TJL9mJ3goXlQ9s9LW-137" value="" style="edgeStyle=elbowEdgeStyle;elbow=horizontal;endArrow=classic;html=1;curved=0;rounded=0;endSize=8;startSize=8;strokeColor=#FF0000;" parent="1" source="6w4TJL9mJ3goXlQ9s9LW-29" target="6w4TJL9mJ3goXlQ9s9LW-27" edge="1">
          <mxGeometry width="50" height="50" relative="1" as="geometry">
            <mxPoint x="280" y="581" as="sourcePoint" />
            <mxPoint x="460" y="460" as="targetPoint" />
            <Array as="points">
              <mxPoint x="160" y="330" />
            </Array>
          </mxGeometry>
        </mxCell>
        <mxCell id="6w4TJL9mJ3goXlQ9s9LW-138" value="100%" style="edgeLabel;html=1;align=center;verticalAlign=middle;resizable=0;points=[];" parent="6w4TJL9mJ3goXlQ9s9LW-137" vertex="1" connectable="0">
          <mxGeometry x="0.0863" relative="1" as="geometry">
            <mxPoint as="offset" />
          </mxGeometry>
        </mxCell>
      </root>
    </mxGraphModel>
  </diagram>
</mxfile>
